<svg  xmlns="http://www.w3.org/2000/svg">
<symbol id="length"> 
<path d="M7.00642 4.09528L7.00723 0L0 7.00964L7.00723 14.0185L7.00642 9.9232L16.992 9.92481V14.0185L24 7.00964L16.992 0V4.09528H7.00642Z" fill="#010002"/>
</symbol>  
<symbol id="width"> 
<path d="M3.4085 10.4797L0.51327 7.58335L0.514976 17.4948L10.4258 17.4959L7.52946 14.6007L14.5914 7.54097L17.4861 10.4356L17.4855 0.524211L7.57354 0.523074L10.4693 3.41887L3.4085 10.4797Z" fill="#010002"/>
</symbol>  
<symbol id="thickness"> 
<path d="M22.5938 5.48438H1.45312C0.6765 5.48438 0.046875 6.114 0.046875 6.89062C0.046875 7.66725 0.6765 8.29688 1.45312 8.29688H22.5938C23.3704 8.29688 24 7.66725 24 6.89062C24 6.114 23.3704 5.48438 22.5938 5.48438Z" fill="black"/>
<path d="M23.0625 0H0.9375C0.419719 0 0 0.419719 0 0.9375C0 1.45528 0.419719 1.875 0.9375 1.875H23.0625C23.5803 1.875 24 1.45528 24 0.9375C24 0.419719 23.5803 0 23.0625 0Z" fill="black"/>
<path d="M21.6562 19.3125H2.39062C1.09622 19.3125 0.046875 20.3618 0.046875 21.6562C0.046875 22.9507 1.09622 24 2.39062 24H21.6562C22.9507 24 24 22.9507 24 21.6562C24 20.3618 22.9507 19.3125 21.6562 19.3125Z" fill="black"/>
<path d="M22.125 11.9062H1.92188C0.886359 11.9062 0.046875 12.7457 0.046875 13.7812C0.046875 14.8168 0.886359 15.6562 1.92188 15.6562H22.125C23.1605 15.6562 24 14.8168 24 13.7812C24 12.7457 23.1605 11.9062 22.125 11.9062Z" fill="black"/>
</symbol> 
<symbol id="lifetime"> 
<path d="M24 26H23V22.727C23 21.099 22.307 19.541 21.097 18.453L19.404 16.93C19.137 16.689 18.99 16.359 18.99 16C18.99 15.641 19.137 15.311 19.404 15.071L21.097 13.548C22.307 12.458 23 10.901 23 9.273V6H24C24.553 6 25 5.552 25 5C25 4.448 24.553 4 24 4H8C7.447 4 7 4.448 7 5C7 5.552 7.447 6 8 6H9V9.273C9 10.901 9.693 12.459 10.903 13.547L12.596 15.07C12.863 15.311 13.01 15.641 13.01 16C13.01 16.359 12.863 16.689 12.596 16.929L10.903 18.452C9.693 19.542 9 21.099 9 22.727V26H8C7.447 26 7 26.448 7 27C7 27.552 7.447 28 8 28H24C24.553 28 25 27.552 25 27C25 26.448 24.553 26 24 26ZM12 22.829C12 22.094 12.286 21.404 12.806 20.884L15.47 18.22C15.763 17.927 16.238 17.927 16.531 18.22L19.195 20.884C19.715 21.404 20.001 22.094 20.001 22.829V26H12V22.829Z" fill="black"/>
</symbol> 
<symbol id="weight"> 
<path d="M26.983 25.137L24.8878 12.6207C24.6908 11.4406 23.6687 10.5781 22.4724 10.5781H19.3245C19.6937 9.93501 19.9047 9.19002 19.9047 8.39667C19.9047 5.97245 17.9328 4 15.5081 4C13.0838 4 11.1114 5.97245 11.1114 8.39667C11.1114 9.19002 11.3225 9.93501 11.6916 10.5781H8.54367C7.34689 10.5781 6.32532 11.4416 6.12828 12.6218L4.03366 25.1396C3.91461 25.8492 4.11476 26.5797 4.58006 27.1287C5.04588 27.6782 5.72901 28 6.44957 28H24.5686C25.2892 28 25.9723 27.6782 26.4381 27.1287C26.9029 26.5786 27.1025 25.8472 26.983 25.137ZM15.5086 6.56148C16.5203 6.56148 17.3438 7.38498 17.3438 8.39719C17.3438 9.40941 16.5203 10.2324 15.5086 10.2324C14.4964 10.2324 13.6729 9.40889 13.6729 8.39667C13.6729 7.38446 14.4964 6.56148 15.5086 6.56148Z" fill="black"/>
</symbol> 
</svg>











